<?xml version="1.0" encoding="utf-8"?>
<!-- Svg Vector Icons : http://www.onlinewebfonts.com/icon -->
<!DOCTYPE svg PUBLIC "-//W3C//DTD SVG 1.1//EN" "http://www.w3.org/Graphics/SVG/1.1/DTD/svg11.dtd">
<svg version="1.1" xmlns="http://www.w3.org/2000/svg" xmlns:xlink="http://www.w3.org/1999/xlink" x="0px" y="0px" viewBox="0 0 256 256" enable-background="new 0 0 256 256" xml:space="preserve">
<metadata> Svg Vector Icons : http://www.onlinewebfonts.com/icon </metadata>
<g><g><path fill="#000000" d="M209.8,141.9V187c0,11.3-4,20.9-12,28.9c-8,8-17.6,12-28.9,12H50.9c-11.3,0-20.9-4-28.9-12c-8-8-12-17.6-12-28.9V69c0-11.3,4-20.9,12-28.9c8-8,17.6-12,28.9-12h118.1c6,0,11.5,1.2,16.6,3.5c1.4,0.7,2.3,1.8,2.6,3.3c0.3,1.6-0.1,3-1.3,4.1l-7,7c-0.9,0.9-2,1.4-3.3,1.4c-0.3,0-0.7-0.1-1.3-0.3c-2.2-0.6-4.3-0.8-6.4-0.8h-118c-6.2,0-11.6,2.2-16,6.7s-6.7,9.8-6.7,16V187c0,6.2,2.2,11.6,6.7,16s9.8,6.7,16,6.7h118.1c6.2,0,11.6-2.2,16-6.7c4.5-4.5,6.7-9.8,6.7-16V151c0-1.2,0.4-2.3,1.3-3.1l9.1-9.1c0.9-0.9,2-1.4,3.3-1.4c0.6,0,1.1,0.1,1.7,0.4C208.9,138.5,209.8,139.9,209.8,141.9z M242.6,72.5L127.1,188c-2.3,2.3-5,3.4-8.1,3.4c-3.1,0-5.8-1.1-8.1-3.4l-61-61c-2.3-2.3-3.4-5-3.4-8.1c0-3.1,1.1-5.8,3.4-8.1l15.6-15.6c2.3-2.3,5-3.4,8.1-3.4c3.1,0,5.8,1.1,8.1,3.4l37.3,37.3l91.8-91.8c2.3-2.3,5-3.4,8.1-3.4s5.8,1.1,8.1,3.4l15.6,15.6c2.3,2.3,3.4,5,3.4,8.1C246,67.6,244.9,70.3,242.6,72.5z"/></g></g>
</svg>